<svg xmlns="http://www.w3.org/2000/svg" xmlns:xlink="http://www.w3.org/1999/xlink" width="300" height="300" viewBox="902699.1599999999 6446936.16 7261.280000000144 17146.080000000075" preserveAspectRatio="xMinYMin meet"><g transform="matrix(1,0,0,-1,0,12911018.4)"><polyline fill="none" stroke="#66cc99" stroke-width="114.30720000000049" points="904717.4,6447571.2 904712.0,6447594.4 904708.6,6447622.9 904705.2,6447651.7 904703.3,6447673.2 904701.8,6447701.3 904700.9,6447730.9 904697.7,6447749.2 904696.7,6447785.5 904695.6,6447815.6 904694.9,6447838.7 904693.9,6447863.7 904691.0,6447882.7 904688.7,6447910.7 904690.7,6447955.9 904695.3,6447989.2 904702.2,6448021.3 904708.9,6448037.8 904718.0,6448065.5 904724.6,6448086.5 904728.8,6448110.2 904720.1,6448174.8 904735.0,6448274.6 904749.2,6448316.2 904751.9,6448326.7 904753.3,6448345.0 904753.0,6448356.8 904752.4,6448371.3 904754.7,6448384.2 904756.1,6448418.6 904752.4,6448432.8 904747.7,6448445.8 904745.5,6448455.4 904747.6,6448465.4 904751.5,6448476.3 904752.2,6448486.1 904751.2,6448505.5 904749.1,6448513.5 904745.9,6448523.0 904744.1,6448536.2 904744.1,6448559.5 904743.5,6448587.1 904741.7,6448609.9 904740.7,6448617.4 904738.7,6448632.7 904730.0,6448662.5 904718.6,6448695.3 904713.2,6448718.2 904707.1,6448749.4 904704.1,6448767.7 904706.3,6448792.8 904706.3,6448807.8 904704.7,6448824.7 904702.0,6448843.0 904694.1,6448859.2 904688.3,6448889.0 904686.0,6448915.7 904684.8,6448931.0 904681.7,6448939.9 904676.2,6448950.0 904651.3,6449004.5 904623.4,6449052.1 904589.9,6449109.9 904568.5,6449157.9 904557.1,6449200.8 904545.9,6449267.4 904533.4,6449323.5 904524.3,6449356.7 904514.8,6449403.7 904503.3,6449452.2 904498.5,6449478.0 904495.2,6449492.5 904492.8,6449511.7 904492.1,6449522.3 904491.8,6449529.9 904491.9,6449537.6 904492.0,6449546.4 904492.4,6449551.2 904492.0,6449558.3 904490.9,6449564.5 904489.8,6449574.1 904490.5,6449584.2 904491.8,6449591.9 904493.1,6449598.5 904493.7,6449604.7 904494.9,6449611.0 904495.9,6449617.2 904496.7,6449622.7 904498.2,6449628.6 904499.8,6449634.0 904501.1,6449639.6 904501.6,6449644.5 904502.0,6449648.9 904502.2,6449653.6 904502.9,6449659.7 904503.9,6449665.0 904504.9,6449671.0 904504.9,6449676.3 904505.3,6449682.7 904506.8,6449690.1 904507.7,6449696.2 904508.2,6449701.5 904508.9,6449707.2 904510.0,6449712.7 904511.4,6449718.0 904512.7,6449724.6 904514.1,6449730.7 904514.8,6449737.1 904515.8,6449743.7 904517.7,6449749.6 904519.4,6449755.6 904522.4,6449761.6 904525.6,6449767.8 904528.6,6449772.8 904530.8,6449778.7 904532.9,6449784.8 904535.6,6449791.5 904538.1,6449797.7 904540.1,6449804.5 904541.7,6449812.6 904543.0,6449820.4 904555.2,6449857.3 904561.0,6449871.8 904567.0,6449884.2 904579.1,6449910.4 904588.4,6449929.8 904594.6,6449947.7 904599.8,6449960.6 904605.5,6449974.2 904611.9,6449985.2 904616.4,6449998.2 904619.6,6450011.2 904623.2,6450026.3 904626.4,6450039.0 904629.6,6450050.2 904631.7,6450059.8 904632.3,6450068.9 904630.2,6450078.0 904626.7,6450086.0 904624.1,6450096.3 904624.3,6450106.7 904626.5,6450118.4 904629.7,6450128.7 904632.6,6450138.8 904635.9,6450149.7 904639.0,6450159.3 904645.5,6450166.5 904650.4,6450181.6 904654.3,6450189.3 904656.2,6450199.5 904658.4,6450209.2 904661.4,6450220.0 904665.0,6450231.2 904669.8,6450243.9 904673.8,6450255.2 904679.4,6450265.9 904685.1,6450277.7 904690.4,6450286.9 904695.5,6450294.1 904697.9,6450302.4 904702.0,6450310.7 904705.1,6450319.5 904708.8,6450329.3 904711.8,6450338.0 904713.2,6450346.8 904713.3,6450356.9 904713.7,6450366.2 904711.1,6450377.3 904707.2,6450386.5 904703.8,6450394.8 904697.3,6450411.7 904680.9,6450422.9 904652.1,6450431.7 904631.2,6450449.1 904605.9,6450486.6 904602.0,6450490.9 904597.0,6450498.1 904593.8,6450503.7 904590.1,6450508.8 904586.9,6450514.2 904584.9,6450517.6 904583.3,6450520.4 904581.7,6450523.8 904580.6,6450526.8 904579.2,6450530.4 904578.4,6450534.0 904578.2,6450538.1 904578.5,6450542.5 904580.0,6450546.9 904581.8,6450550.5 904583.7,6450554.2 904585.6,6450558.0 904587.6,6450562.4 904590.3,6450566.6 904592.9,6450571.3 904595.6,6450577.8 904597.5,6450585.5 904598.5,6450592.2 904599.2,6450598.6 904600.3,6450607.5 904601.9,6450615.6 904603.8,6450623.3 904605.2,6450633.6 904604.8,6450639.6 904602.9,6450646.0 904600.7,6450650.9 904597.8,6450654.8 904593.9,6450658.6 904589.8,6450662.0 904585.2,6450665.7 904579.6,6450669.1 904574.6,6450672.7 904569.4,6450675.5 904564.5,6450678.9 904559.3,6450682.3 904515.1,6450704.3 904495.7,6450722.1 904465.5,6450749.9 904405.1,6450797.3 904363.6,6450835.9 904356.1,6450838.2 904350.0,6450840.6 904344.7,6450843.5 904338.8,6450845.1 904333.8,6450844.7 904328.6,6450843.2 904324.3,6450842.3 904320.4,6450842.1 904316.3,6450842.6 904312.6,6450845.4 904309.2,6450849.3 904305.9,6450854.1 904301.3,6450857.6 904297.5,6450858.9 904267.5,6450879.9 904254.7,6450889.8 904250.3,6450895.2 904245.2,6450899.2 904239.7,6450901.2 904234.8,6450903.2 904228.8,6450905.3 904222.7,6450907.7 904218.1,6450911.0 904213.9,6450916.6 904210.7,6450921.6 904207.8,6450927.0 904204.1,6450931.3 904199.4,6450934.6 904193.3,6450936.2 904187.3,6450937.1 904182.1,6450938.0 904177.2,6450940.2 904174.7,6450945.6 904174.3,6450951.8 904172.6,6450957.4 904167.5,6450961.8 904161.2,6450963.6 904154.2,6450964.2 904146.2,6450965.4 904138.8,6450967.4 904131.8,6450969.2 904126.4,6450970.6 904120.2,6450969.9 904113.2,6450966.7 904107.4,6450964.4 904100.9,6450963.4 904095.1,6450965.8 904090.4,6450969.7 904084.6,6450973.6 904079.8,6450975.0 904075.0,6450976.7 904069.0,6450977.1 904063.0,6450975.9 904056.6,6450975.4 904050.2,6450975.4 904044.7,6450975.7 904039.7,6450975.7 904034.8,6450975.6 904030.0,6450975.6 904025.5,6450976.7 904022.4,6450980.5 904019.4,6450985.0 904014.9,6450988.5 904010.9,6450992.8 904007.3,6450997.8 904004.7,6451002.3 904004.2,6451007.9 904004.0,6451012.9 904003.0,6451017.4 904001.2,6451020.7 903998.4,6451023.0 903995.3,6451024.7 903992.7,6451025.4 903988.5,6451024.2 903986.8,6451020.2 903986.3,6451019.2 903984.9,6451018.3 903983.2,6451017.8 903981.7,6451017.8 903980.5,6451017.8 903979.4,6451018.4 903977.6,6451019.9 903976.0,6451021.0 903974.3,6451022.0 903972.2,6451022.8 903969.5,6451022.7 903967.4,6451021.1 903965.1,6451017.7 903961.9,6451015.6 903958.3,6451014.9 903955.4,6451014.7 903953.5,6451015.3 903951.4,6451016.1 903946.8,6451020.0 903944.9,6451021.1 903943.2,6451022.1 903942.7,6451024.5 903943.1,6451027.6 903944.0,6451030.2 903945.2,6451032.1 903946.4,6451035.0 903946.6,6451038.6 903945.1,6451041.6 903943.0,6451042.6 903941.0,6451042.5 903939.4,6451043.6 903938.4,6451046.6 903937.3,6451048.8 903936.3,6451050.9 903933.8,6451051.2 903930.5,6451051.3 903926.6,6451051.8 903923.1,6451052.1 903919.9,6451052.1 903916.8,6451051.5 903913.6,6451050.3 903910.6,6451049.1 903907.7,6451049.0 903905.6,6451048.9 903902.3,6451050.5 903899.3,6451053.2 903896.2,6451056.5 903893.3,6451059.4 903890.4,6451062.2 903887.8,6451065.3 903885.0,6451068.1 903882.0,6451070.9 903879.5,6451071.6 903876.8,6451072.3 903874.5,6451074.1 903871.7,6451076.1 903868.8,6451077.4 903866.3,6451076.4 903863.0,6451076.1 903860.7,6451077.2 903859.6,6451079.4 903859.0,6451082.1 903857.1,6451084.3 903854.7,6451085.0 903852.0,6451084.6 903849.5,6451085.3 903846.2,6451087.0 903842.5,6451088.2 903838.5,6451089.7 903834.9,6451091.5 903831.4,6451093.7 903828.6,6451095.5 903825.7,6451096.3 903822.9,6451097.1 903819.3,6451098.5 903816.5,6451100.1 903814.0,6451101.4 903810.4,6451102.3 903807.0,6451102.8 903804.9,6451103.5 903796.6,6451104.4 903790.8,6451102.7 903787.0,6451101.8 903781.9,6451101.6 903776.9,6451100.9 903771.2,6451100.4 903766.6,6451099.9 903762.1,6451098.8 903757.1,6451098.6 903752.8,6451099.3 903748.9,6451100.3 903745.0,6451100.9 903740.7,6451101.3 903735.9,6451102.5 903729.9,6451103.4 903724.9,6451104.9 903721.4,6451106.4 903717.7,6451109.1 903715.4,6451110.8 903711.9,6451110.8 903708.2,6451110.7 903705.5,6451110.3 903702.8,6451109.3 903699.2,6451109.0 903694.8,6451109.3 903691.0,6451110.0 903687.2,6451110.6 903682.8,6451110.8 903677.8,6451110.5 903673.7,6451110.5 903669.4,6451111.5 903665.5,6451113.1 903661.1,6451115.2 903656.7,6451117.7 903651.8,6451119.0 903649.4,6451118.2 903647.8,6451117.9 903646.1,6451117.3 903642.7,6451119.1 903639.8,6451122.0 903637.5,6451124.1 903632.7,6451125.9 903628.9,6451127.6 903625.7,6451128.0 903622.9,6451128.7 903620.1,6451129.7 903616.5,6451130.2 903613.6,6451130.5 903609.9,6451131.0 903606.6,6451132.1 903603.8,6451133.5 903600.3,6451135.3 903596.7,6451137.0 903593.6,6451138.8 903590.6,6451139.9 903586.6,6451141.6 903582.6,6451143.0 903578.0,6451144.6 903574.9,6451146.1 903572.3,6451147.4 903569.9,6451149.2 903568.1,6451150.7 903566.7,6451153.0 903565.3,6451156.7 903563.9,6451159.8 903562.4,6451163.2 903561.9,6451165.9 903562.4,6451168.2 903562.6,6451170.0 903562.4,6451172.9 903562.3,6451173.3 903561.5,6451175.4 903560.6,6451178.5 903559.8,6451180.8 903560.1,6451184.3 903561.1,6451188.7 903562.1,6451192.6 903561.3,6451197.8 903559.7,6451201.1 903558.9,6451203.9 903559.6,6451207.2 903559.9,6451211.1 903558.6,6451214.5 903557.4,6451218.4 903555.6,6451221.3 903553.6,6451223.3 903552.0,6451225.1 903549.6,6451226.5 903547.3,6451228.4 903545.5,6451230.9 903543.6,6451234.2 903542.0,6451237.1 903540.2,6451240.3 903538.2,6451243.5 903536.2,6451246.0 903534.6,6451247.5 903526.9,6451254.6 903518.8,6451264.4 903511.7,6451272.0 903508.3,6451275.2 903505.9,6451277.0 903503.2,6451277.9 903500.0,6451278.8 903497.0,6451279.4 903494.2,6451279.7 903492.4,6451280.1 903491.1,6451281.4 903490.4,6451284.6 903490.0,6451288.7 903489.3,6451293.4 903488.0,6451297.3 903486.0,6451299.9 903483.4,6451301.5 903479.9,6451303.6 903477.1,6451305.9 903474.1,6451309.1 903471.3,6451312.5 903469.4,6451316.3 903467.9,6451319.9 903466.1,6451323.0 903463.7,6451325.7 903461.2,6451328.6 903459.2,6451331.0 903455.8,6451335.2 903452.8,6451344.0 903448.8,6451350.7 903445.8,6451354.1 903441.6,6451358.5 903421.1,6451364.4 903397.6,6451375.8 903378.5,6451382.6 903359.1,6451390.5 903356.0,6451392.2 903353.3,6451394.6 903353.1,6451397.6 903354.6,6451400.8 903356.9,6451403.5 903358.1,6451407.4 903359.0,6451413.0 903359.5,6451419.0 903359.9,6451424.6 903360.4,6451428.9 903361.6,6451433.3 903362.1,6451437.6 903362.4,6451442.6 903362.5,6451445.2 903361.0,6451447.1 903357.7,6451447.9 903354.8,6451449.3 903352.6,6451452.7 903351.9,6451458.2 903350.5,6451463.7 903348.7,6451468.6 903346.2,6451472.0 903342.9,6451475.1 903340.6,6451478.8 903339.8,6451484.1 903338.9,6451490.2 903338.5,6451495.1 903338.5,6451498.3 903338.7,6451500.6 903342.0,6451503.0 903345.1,6451505.5 903347.0,6451509.2 903350.0,6451512.0 903352.2,6451513.2 903354.9,6451513.3 903356.2,6451512.6 903356.8,6451512.4 903360.1,6451512.8 903358.6,6451515.0 903356.8,6451517.9 903355.6,6451520.2 903355.8,6451523.1 903358.2,6451526.2 903359.7,6451528.5 903361.6,6451532.2 903363.8,6451535.4 903365.6,6451539.1 903366.2,6451543.3 903365.8,6451547.2 903364.8,6451550.7 903363.0,6451553.1 903361.3,6451555.4 903360.3,6451558.7 903360.1,6451562.4 903360.1,6451566.5 903359.2,6451570.4 903358.4,6451574.6 903357.3,6451578.2 903356.5,6451581.1 903356.6,6451585.0 903358.3,6451588.9 903358.9,6451592.9 903357.4,6451596.2 903356.7,6451599.3 903356.6,6451603.9 903357.0,6451608.6 903357.3,6451613.5 903358.1,6451617.2 903357.6,6451619.7 903355.6,6451621.8 903354.4,6451624.3 903354.0,6451628.3 903353.9,6451632.9 903352.0,6451641.6 903351.4,6451644.9 903350.8,6451649.4 903351.6,6451655.2 903352.0,6451660.9 903350.8,6451665.4 903349.7,6451669.0 903348.5,6451673.1 903346.7,6451677.7 903345.8,6451681.4 903345.4,6451685.3 903345.4,6451688.6 903346.8,6451692.9 903346.9,6451696.4 903346.2,6451701.1 903345.5,6451706.6 903344.8,6451711.1 903343.3,6451716.7 903342.7,6451720.3 903342.8,6451724.1 903343.8,6451728.7 903344.0,6451732.3 903343.8,6451735.0 903342.7,6451737.4 903340.6,6451740.5 903337.1,6451748.1 903335.1,6451752.5 903334.2,6451754.2 903337.4,6451756.1 903341.9,6451759.3 903344.9,6451761.6 903345.8,6451763.4 903345.9,6451766.2 903345.7,6451769.2 903345.0,6451771.6 903345.1,6451775.2 903345.4,6451779.1 903346.8,6451785.0 903346.4,6451790.9 903347.4,6451795.5 903351.2,6451801.6 903354.7,6451807.6 903356.7,6451812.5 903357.2,6451816.9 903355.4,6451830.5 903355.0,6451837.1 903354.4,6451841.8 903353.5,6451846.4 903353.2,6451851.7 903353.3,6451857.6 903355.3,6451861.6 903356.7,6451865.1 903358.0,6451868.8 903358.5,6451872.3 903358.8,6451875.3 903359.0,6451878.4 903359.0,6451882.0 903359.0,6451884.5 903358.5,6451887.2 903358.3,6451889.9 903356.8,6451892.5 903354.5,6451894.8 903352.1,6451897.0 903350.1,6451899.6 903348.1,6451902.3 903346.1,6451904.7 903344.4,6451908.1 903343.6,6451910.7 903344.7,6451913.1 903345.8,6451916.4 903346.0,6451920.1 903345.7,6451922.9 903345.0,6451927.1 903344.9,6451930.7 903346.2,6451934.1 903348.0,6451936.4 903348.8,6451938.3 903347.6,6451940.9 903346.3,6451944.4 903346.0,6451947.5 903345.9,6451950.8 903346.5,6451953.2 903349.4,6451954.8 903352.5,6451957.8 903354.6,6451960.8 903356.8,6451963.7 903358.4,6451965.8 903359.7,6451969.2 903360.8,6451972.5 903361.7,6451976.9 903362.8,6451980.4 903364.3,6451984.5 903364.9,6451987.2 903365.6,6451990.1 903366.4,6451992.9 903368.0,6451995.8 903369.6,6451997.9 903371.3,6452000.5 903373.1,6452002.7 903374.9,6452005.1 903376.5,6452008.7 903375.8,6452012.2 903372.5,6452014.6 903370.4,6452016.8 903367.1,6452021.2 903365.5,6452025.6 903363.9,6452029.1 903362.9,6452032.5 903362.8,6452036.4 903362.5,6452040.0 903361.6,6452043.7 903360.5,6452047.4 903359.9,6452051.1 903360.5,6452054.3 903362.3,6452057.7 903364.6,6452061.3 903366.8,6452064.9 903368.5,6452068.6 903369.9,6452071.7 903370.8,6452075.0 903372.4,6452078.7 903373.7,6452082.3 903374.9,6452086.0 903376.0,6452088.9 903376.3,6452092.5 903376.4,6452096.4 903377.0,6452101.3 903377.8,6452105.9 903379.2,6452110.8 903380.8,6452114.8 903382.5,6452118.5 903383.2,6452122.2 903383.2,6452125.4 903383.1,6452129.2 903384.3,6452132.9 903386.1,6452136.8 903387.5,6452140.8 903389.3,6452145.0 903391.6,6452149.1 903393.1,6452152.7 903394.5,6452156.4 903395.4,6452159.9 903396.2,6452163.6 903396.4,6452166.6 903396.2,6452169.8 903395.3,6452173.0 903393.7,6452175.6 903392.1,6452178.9 903391.0,6452181.8 903387.9,6452186.2 903386.1,6452189.5 903385.0,6452193.2 903384.3,6452195.7 903383.6,6452198.3 903383.0,6452200.4 903382.7,6452202.7 903383.2,6452205.4 903384.9,6452207.1 903387.4,6452209.3 903389.4,6452211.0 903391.1,6452212.8 903391.7,6452215.6 903391.7,6452218.4 903391.8,6452220.7 903392.6,6452223.6 903393.2,6452225.7 903392.3,6452228.1 903390.6,6452230.5 903389.5,6452233.5 903389.6,6452234.8 903392.4,6452233.4 903395.9,6452233.5 903397.6,6452235.1 903399.7,6452237.2 903401.2,6452238.8 903403.7,6452240.1 903406.5,6452239.7 903408.8,6452239.0 903410.5,6452237.6 903412.7,6452236.2 903416.3,6452235.1 903419.1,6452233.9 903421.6,6452232.3 903424.3,6452231.0 903426.5,6452230.6 903428.3,6452231.5 903429.4,6452233.3 903428.8,6452235.9 903428.0,6452238.3 903427.0,6452240.6 903426.4,6452243.2 903426.6,6452245.2 903429.2,6452246.9 903431.9,6452247.8 903434.5,6452247.9 903437.2,6452248.0 903440.6,6452249.4 903443.1,6452251.6 903445.3,6452253.5 903448.1,6452254.4 903449.4,6452256.0 903449.9,6452258.6 903451.2,6452261.4 903453.3,6452263.9 903455.2,6452266.0 903455.6,6452267.8 903454.3,6452270.3 903452.9,6452273.7 903451.9,6452276.4 903452.0,6452279.2 903453.5,6452282.1 903455.8,6452285.0 903458.3,6452287.6 903460.9,6452290.5 903463.0,6452293.4 903465.5,6452296.5 903467.7,6452299.5 903470.4,6452302.8 903473.6,6452305.4 903477.5,6452307.5 903481.0,6452309.5 903485.2,6452311.0 903489.3,6452312.7 903491.6,6452314.9 903492.1,6452317.6 903492.4,6452321.0 903492.7,6452324.5 903493.7,6452327.2 903495.5,6452329.8 903496.8,6452333.1 903497.0,6452337.2 903496.1,6452340.0 903493.8,6452342.8 903491.6,6452345.5 903489.6,6452348.3 903487.9,6452351.7 903487.0,6452354.4 903487.7,6452356.5 903490.1,6452358.4 903492.5,6452358.8 903494.8,6452360.2 903498.2,6452363.1 903501.0,6452365.5 903503.8,6452367.6 903507.2,6452369.6 903510.7,6452370.0 903514.3,6452370.6 903517.1,6452372.4 903519.8,6452374.2 903522.4,6452375.5 903525.0,6452377.0 903528.2,6452377.8 903531.3,6452378.0 903534.1,6452380.1 903536.3,6452383.7 903538.8,6452386.8 903541.5,6452390.4 903544.8,6452393.7 903547.8,6452397.0 903550.4,6452399.5 903553.2,6452402.3 903555.7,6452405.1 903557.3,6452408.0 903558.8,6452411.4 903559.6,6452415.3 903559.9,6452418.6 903560.7,6452422.5 903561.8,6452426.4 903563.6,6452430.3 903565.4,6452433.9 903567.3,6452437.6 903569.4,6452441.9 903571.6,6452445.3 903574.3,6452449.1 903576.9,6452452.0 903579.5,6452455.2 903581.9,6452459.1 903584.2,6452461.8 903586.7,6452465.3 903588.8,6452467.9 903591.1,6452469.9 903593.2,6452470.4 903594.4,6452468.2 903595.3,6452463.6 903596.1,6452459.0 903597.2,6452455.4 903599.7,6452452.7 903602.6,6452451.3 903605.6,6452449.2 903609.5,6452447.5 903613.4,6452446.1 903616.9,6452444.9 903621.0,6452443.8 903625.2,6452441.6 903628.6,6452438.7 903632.2,6452435.6 903635.3,6452432.5 903638.5,6452429.8 903641.4,6452428.6 903643.7,6452428.6 903647.5,6452429.1 903650.8,6452429.9 903653.5,6452430.3 903656.0,6452431.2 903659.2,6452431.6 903663.2,6452431.4 903665.6,6452431.4 903669.2,6452431.4 903672.6,6452431.5 903676.1,6452431.7 903679.1,6452431.8 903682.4,6452431.8 903686.4,6452430.9 903689.5,6452429.2 903692.1,6452427.6 903694.8,6452426.2 903697.9,6452424.2 903701.4,6452423.8 903705.2,6452425.8 903709.0,6452429.4 903711.4,6452433.0 903714.6,6452438.3 903717.7,6452443.6 903720.6,6452449.4 903723.5,6452454.8 903725.7,6452460.0 903728.1,6452465.1 903729.9,6452469.5 903776.6,6452554.1 903789.1,6452567.1 903808.0,6452580.7 903830.8,6452589.3 903846.3,6452577.1 903850.0,6452575.4 903865.2,6452579.9 903883.6,6452594.0 903896.6,6452610.1 903957.6,6452650.6 904041.1,6452698.4 904060.4,6452707.5 904087.0,6452722.4 904109.0,6452732.8 904114.1,6452738.4 904116.5,6452744.1 904116.2,6452753.3 904114.4,6452767.2 904114.5,6452773.8 904116.9,6452782.3 904121.7,6452794.7 904128.9,6452808.7 904134.7,6452825.1 904140.9,6452841.3 904143.3,6452850.5 904142.0,6452856.1 904139.0,6452868.0 904137.9,6452878.1 904134.6,6452883.3 904126.7,6452891.3 904118.7,6452897.0 904114.3,6452902.6 904112.0,6452911.4 904109.7,6452922.4 904109.4,6452928.6 904113.0,6452945.6 904121.2,6452958.9 904134.2,6452975.3 904146.7,6452985.6 904159.0,6452991.2 904174.1,6452995.8 904199.5,6453004.4 904211.8,6453008.3 904224.7,6453013.9 904238.8,6453021.5 904249.4,6453031.2 904259.8,6453041.9 904266.6,6453048.4 904276.4,6453058.0 904287.9,6453070.2 904302.2,6453087.0 904314.5,6453101.7 904324.9,6453112.3 904332.1,6453120.3 904339.1,6453127.4 904346.7,6453131.9 904355.0,6453135.6 904362.5,6453139.6 904366.7,6453143.8 904368.1,6453149.5 904367.8,6453154.3 904366.1,6453159.1 904364.4,6453161.3 904361.2,6453163.5 904356.7,6453165.0 904352.5,6453167.5 904349.4,6453172.4 904348.2,6453180.9 904348.6,6453187.9 904348.7,6453192.8 904350.4,6453198.0 904351.2,6453201.2 904351.1,6453204.2 904349.8,6453209.6 904345.0,6453229.3 904342.2,6453242.6 904340.0,6453250.9 904337.1,6453257.4 904331.7,6453266.9 904330.9,6453272.6 904331.5,6453277.4 904335.0,6453284.6 904337.7,6453297.4 904342.5,6453310.9 904346.0,6453323.2 904345.8,6453332.6 904345.7,6453340.2 904345.5,6453344.1 904347.2,6453348.3 904348.9,6453354.1 904349.6,6453369.2 904348.3,6453384.6 904344.5,6453396.3 904336.4,6453410.6 904326.7,6453426.7 904317.9,6453441.6 904316.5,6453446.3 904315.5,6453451.9 904315.9,6453456.6 904319.5,6453464.3 904324.4,6453479.5 904330.2,6453499.4 904333.6,6453506.6 904341.1,6453518.4 904348.9,6453528.9 904355.3,6453538.6 904364.7,6453549.2 904373.4,6453557.9 904381.0,6453566.4 904394.6,6453573.4 904405.3,6453576.0 904415.3,6453577.8 904425.1,6453578.1 904432.0,6453579.5 904441.2,6453584.6 904451.5,6453593.6 904458.5,6453602.5 904464.0,6453610.3 904471.6,6453619.3 904479.6,6453629.5 904488.4,6453638.9 904498.2,6453652.3 904506.1,6453662.7 904513.9,6453674.6 904522.9,6453686.5 904530.6,6453699.4 904539.0,6453711.6 904548.0,6453722.1 904555.6,6453733.4 904560.7,6453743.5 904566.3,6453751.0 904572.5,6453756.9 904580.7,6453760.8 904586.2,6453766.5 904588.5,6453774.3 904588.2,6453782.6 904589.6,6453790.6 904593.1,6453796.8 904600.2,6453801.7 904608.3,6453808.7 904617.7,6453813.8 904623.6,6453816.6 904634.0,6453823.0 904637.3,6453827.3 904640.4,6453832.1 904644.0,6453840.3 904646.0,6453845.6 904647.4,6453851.9 904648.8,6453858.0 904655.1,6453861.9 904660.5,6453864.7 904664.7,6453867.2 904669.1,6453869.2 904673.6,6453871.3 904677.5,6453873.2 904681.7,6453875.7 904686.5,6453878.6 904690.8,6453881.2 904694.6,6453884.0 904698.4,6453886.6 904702.8,6453889.4 904706.9,6453891.8 904711.1,6453893.9 904715.8,6453896.4 904721.3,6453899.5 904726.8,6453902.9 904731.5,6453906.2 904735.7,6453909.5 904739.4,6453913.3 904744.3,6453918.6 904747.0,6453924.8 904749.6,6453930.9 904752.3,6453941.2 904754.6,6453949.7 904756.1,6453958.3 904757.5,6453965.2 904758.3,6453973.3 904759.2,6453981.1 904760.0,6453989.0 904761.4,6453997.4 904789.4,6454121.8 904790.8,6454130.0 904799.0,6454157.6 904803.6,6454170.8 904808.8,6454179.7 904814.7,6454187.3 904824.7,6454200.6 904830.7,6454208.9 904837.3,6454219.8 904843.6,6454230.4 904850.4,6454239.2 904854.4,6454246.5 904858.7,6454255.0 904867.2,6454267.1 904875.8,6454276.7 904884.6,6454283.9 904894.7,6454293.2 904899.9,6454300.4 904902.5,6454307.6 904905.1,6454317.0 904907.2,6454324.9 904909.8,6454331.0 904914.0,6454339.2 904925.6,6454356.0 904933.8,6454370.8 904942.8,6454387.4 904946.5,6454395.8 904948.7,6454402.9 904950.0,6454408.4 904949.2,6454416.6 904946.4,6454423.5 904939.9,6454434.7 904937.0,6454441.1 904932.1,6454454.9 904929.5,6454463.1 904928.1,6454472.7 904928.4,6454479.9 904932.0,6454486.6 904935.6,6454490.8 904941.1,6454494.1 904950.1,6454498.0 904960.8,6454503.4 904967.1,6454508.2 904973.7,6454514.3 904978.7,6454521.4 904985.5,6454530.2 904991.1,6454535.2 904997.6,6454538.9 905004.2,6454541.3 905010.5,6454544.3 905014.6,6454548.7 905016.4,6454553.1 905017.7,6454559.2 905017.4,6454565.3 905016.6,6454571.6 905015.5,6454577.0 905013.8,6454585.9 905011.2,6454600.2 905007.2,6454609.8 905001.6,6454620.1 904995.6,6454630.3 904991.9,6454638.6 904992.0,6454643.5 904993.5,6454648.6 904996.0,6454653.6 905000.6,6454657.7 905004.6,6454661.0 905008.4,6454664.8 905012.7,6454669.8 905017.2,6454675.1 905020.8,6454679.4 905025.0,6454684.9 905029.1,6454690.7 905032.2,6454696.1 905034.5,6454702.7 905036.6,6454709.3 905038.3,6454717.4 905038.0,6454725.8 905037.5,6454732.4 905036.3,6454738.8 905034.6,6454745.0 905032.1,6454751.8 905030.0,6454758.7 905026.6,6454766.4 905024.5,6454772.0 905018.1,6454783.2 905012.2,6454791.9 905006.7,6454798.0 905004.6,6454804.5 905004.2,6454810.4 905003.4,6454821.2 905007.5,6454828.0 905009.4,6454868.6 905012.8,6454901.4 905024.1,6454935.6 905041.4,6454958.9 905060.3,6454979.0 905065.3,6455011.7 905064.0,6455047.6 905076.8,6455078.8 905117.4,6455108.7 905122.1,6455113.0 905125.3,6455120.0 905128.7,6455131.0 905132.2,6455140.0 905134.4,6455146.4 905135.5,6455152.5 905136.7,6455159.6 905137.3,6455166.8 905137.7,6455172.8 905138.1,6455178.8 905138.4,6455186.2 905139.7,6455192.8 905141.2,6455199.2 905143.0,6455205.6 905144.2,6455212.1 905145.5,6455218.5 905146.9,6455225.3 905147.0,6455231.4 905145.1,6455240.1 905142.8,6455247.0 905138.6,6455256.1 905136.2,6455261.7 905134.2,6455266.9 905132.6,6455272.6 905131.1,6455278.4 905129.8,6455283.4 905129.1,6455288.8 905129.2,6455293.5 905130.2,6455297.8 905131.3,6455302.7 905133.1,6455308.1 905135.5,6455312.9 905138.4,6455317.5 905142.0,6455322.5 905144.8,6455326.7 905148.3,6455330.8 905152.0,6455335.3 905155.2,6455339.5 905159.0,6455343.7 905163.8,6455348.2 905168.9,6455352.7 905174.9,6455357.1 905179.9,6455360.9 905185.4,6455364.8 905191.1,6455369.7 905196.3,6455374.8 905202.4,6455380.2 905208.3,6455385.1 905213.0,6455389.4 905217.2,6455393.6 905220.5,6455398.0 905223.3,6455402.9 905225.9,6455407.8 905228.0,6455413.4 905229.9,6455419.6 905231.2,6455425.8 905232.2,6455432.7 905233.1,6455439.1 905234.1,6455446.2 905234.5,6455451.9 905234.3,6455458.4 905234.0,6455464.9 905233.9,6455471.4 905234.2,6455477.9 905235.6,6455484.8 905237.2,6455491.5 905238.9,6455498.3 905240.8,6455504.5 905241.7,6455511.1 905243.5,6455524.3 905244.7,6455532.1 905245.9,6455541.9 905247.3,6455550.7 905250.0,6455561.9 905252.1,6455568.8 905254.0,6455573.9 905256.3,6455579.8 905258.7,6455585.1 905261.8,6455591.1 905265.2,6455596.9 905269.1,6455602.6 905273.5,6455610.6 905277.1,6455619.2 905279.9,6455626.3 905283.0,6455636.5 905285.1,6455644.5 905287.8,6455650.4 905291.0,6455656.2 905293.4,6455663.2 905295.6,6455670.8 905297.0,6455678.2 905298.7,6455685.0 905300.5,6455692.7 905302.3,6455700.1 905304.0,6455707.2 905305.8,6455714.2 905307.6,6455721.6 905308.5,6455728.9 905309.4,6455736.7 905309.4,6455743.0 905309.1,6455749.3 905309.5,6455755.5 905310.3,6455762.7 905311.3,6455769.9 905313.1,6455776.7 905314.8,6455783.4 905316.3,6455789.6 905317.8,6455796.1 905318.9,6455802.1 905318.6,6455808.4 905317.9,6455814.7 905316.3,6455821.6 905315.3,6455827.4 905315.0,6455834.2 905315.0,6455841.6 905315.3,6455848.7 905315.7,6455855.8 905316.8,6455862.3 905317.7,6455869.0 905318.3,6455875.0 905319.2,6455881.8 905319.6,6455887.3 905320.3,6455892.8 905321.5,6455898.0 905324.7,6455902.2 905326.6,6455904.0 905328.7,6455908.5 905331.2,6455914.2 905335.4,6455919.8 905340.0,6455924.8 905343.6,6455928.9 905347.6,6455931.8 905351.8,6455934.0 905356.0,6455935.9 905358.5,6455938.6 905362.1,6455942.1 905365.9,6455945.2 905370.1,6455947.8 905375.3,6455951.8 905380.2,6455956.6 905383.9,6455961.6 905387.1,6455966.9 905389.7,6455972.9 905391.0,6455979.7 905391.9,6455986.8 905392.6,6455993.6 905392.6,6456001.0 905392.5,6456009.2 905392.2,6456016.4 905392.1,6456023.2 905392.0,6456030.1 905392.4,6456037.9 905392.3,6456044.9 905392.1,6456051.7 905392.3,6456058.7 905392.3,6456065.2 905392.0,6456071.8 905391.6,6456078.8 905391.3,6456085.8 905391.2,6456092.6 905391.3,6456098.5 905391.9,6456103.8 905392.9,6456108.9 905395.9,6456114.1 905399.1,6456118.4 905402.3,6456123.1 905405.2,6456127.9 905409.4,6456132.6 905413.7,6456137.0 905418.2,6456141.2 905423.0,6456145.4 905428.4,6456148.9 905433.9,6456152.5 905441.9,6456157.3 905446.9,6456160.0 905452.2,6456162.5 905457.7,6456165.0 905464.5,6456167.1 905471.8,6456168.5 905478.0,6456170.0 905484.1,6456171.1 905491.3,6456171.7 905497.5,6456171.9 905504.4,6456172.0 905511.2,6456172.8 905518.3,6456174.1 905521.8,6456175.0 905526.4,6456175.2 905531.7,6456176.6 905535.6,6456177.3 905541.1,6456178.8 905545.6,6456180.1 905553.2,6456182.2 905559.0,6456185.3 905562.4,6456190.6 905569.1,6456198.6 905575.1,6456202.8 905582.3,6456207.4 905590.5,6456212.1 905599.2,6456217.0 905605.5,6456223.6 905613.1,6456230.3 905619.0,6456235.5 905624.5,6456242.2 905629.7,6456248.4 905633.5,6456259.6 905629.9,6456269.7 905628.3,6456275.7 905626.3,6456282.3 905626.1,6456290.7 905629.1,6456299.9 905634.0,6456305.7 905641.2,6456309.8 905650.3,6456315.2 905664.3,6456325.2 905671.5,6456329.6 905677.5,6456337.9 905682.0,6456344.5 905691.3,6456351.8 905697.3,6456359.6 905705.9,6456367.6 905714.4,6456376.7 905718.2,6456381.9 905721.1,6456386.2 905721.9,6456391.4 905724.6,6456402.1 905725.8,6456414.7 905725.1,6456420.2 905733.8,6456441.9 905736.8,6456449.6 905741.7,6456456.6 905747.7,6456465.0 905752.5,6456469.8 905755.1,6456473.9 905760.7,6456480.8 905763.3,6456487.8 905764.5,6456495.2 905766.0,6456500.6 905766.1,6456508.4 905762.5,6456519.8 905759.7,6456530.3 905752.7,6456540.6 905746.2,6456549.2 905739.2,6456555.5 905730.4,6456564.5 905721.0,6456575.7 905721.9,6456584.2 905731.2,6456593.1 905739.7,6456604.7 905752.3,6456619.4 905767.3,6456638.0 905771.4,6456660.6 905768.6,6456695.0 905766.4,6456719.2 905775.9,6456739.8 905779.0,6456746.9 905785.4,6456760.6 905786.7,6456767.2 905788.1,6456774.7 905788.6,6456784.1 905787.4,6456792.3 905784.9,6456800.8 905782.3,6456809.6 905779.4,6456818.0 905775.1,6456829.9 905773.6,6456841.2 905777.5,6456852.0 905783.1,6456860.7 905790.4,6456866.3 905796.0,6456873.6 905806.3,6456894.8 905810.0,6456905.7 905810.5,6456916.1 905809.9,6456937.0 905810.8,6456956.4 905810.4,6456964.4 905806.2,6456994.4 905803.0,6457004.1 905798.6,6457022.7 905799.8,6457030.8 905802.2,6457038.2 905810.0,6457052.5 905818.0,6457064.1 905824.0,6457067.8 905830.2,6457070.6 905850.0,6457076.6 905871.8,6457085.2 905888.4,6457090.3 905895.2,6457094.6 905900.5,6457099.7 905905.3,6457107.1 905908.4,6457116.1 905910.7,6457141.6 905910.2,6457148.2 905906.8,6457154.6 905900.3,6457158.6 905882.0,6457166.5 905872.0,6457173.4 905865.1,6457194.8 905861.8,6457200.5 905859.0,6457208.4 905858.9,6457216.3 905868.3,6457228.9 905872.4,6457236.6 905877.0,6457243.5 905893.6,6457262.2 905897.7,6457268.7 905899.1,6457274.5 905897.2,6457280.8 905896.7,6457288.1 905898.1,6457295.9 905899.9,6457302.9 905908.9,6457325.7 905910.5,6457333.0 905910.4,6457341.1 905911.6,6457348.7 905914.2,6457357.4 905922.9,6457381.2 905924.7,6457398.8 905928.9,6457415.1 905937.0,6457430.8 905940.1,6457440.9 905944.2,6457449.4 905955.9,6457463.3 905970.6,6457476.8 905977.4,6457484.0 905982.8,6457493.8 905984.6,6457501.7 905984.6,6457523.3 905979.9,6457541.9 905979.0,6457561.0 905980.0,6457571.7 905982.3,6457581.9 905986.3,6457594.5 905990.2,6457605.6 905998.7,6457625.6 906001.0,6457634.7 906002.4,6457645.9 906006.1,6457655.0 906011.6,6457664.8 906019.0,6457671.2 906027.2,6457676.6 906036.9,6457680.2 906052.7,6457684.3 906065.0,6457691.7 906073.2,6457697.6 906079.1,6457704.4 906084.1,6457711.7 906099.0,6457725.6 906105.1,6457732.4 906115.7,6457750.2 906129.4,6457761.2 906134.6,6457768.3 906140.8,6457774.8 906147.3,6457778.5 906160.7,6457783.7 906174.8,6457793.5 906182.4,6457797.3 906188.9,6457801.5 906204.7,6457814.0 906212.7,6457822.8 906225.8,6457834.1 906230.3,6457836.4 906238.3,6457838.6 906249.9,6457839.7 906259.4,6457841.5 906267.4,6457843.8 906295.2,6457859.9 906303.6,6457866.3 906310.3,6457873.0 906314.3,6457883.8 906317.0,6457894.3 906321.5,6457916.5 906324.7,6457940.9 906326.1,6457966.9 906328.4,6457979.4 906326.3,6458001.0 906320.8,6458018.6 906312.3,6458039.6 906309.8,6458049.0 906307.8,6458067.2 906305.9,6458095.9 906304.8,6458108.2 906304.0,6458117.7 906302.0,6458121.3 906298.2,6458159.3 906297.6,6458173.6 906297.6,6458190.0 906298.9,6458224.2 906299.0,6458268.9 906300.7,6458290.8 906303.6,6458308.7 906310.3,6458366.7 906315.8,6458438.0 906319.8,6458461.6 906320.8,6458473.4 906328.5,6458499.1 906333.6,6458511.1 906339.7,6458522.3 906352.5,6458538.2 906364.3,6458547.0 906378.0,6458562.2 906386.1,6458568.2 906400.9,6458582.6 906406.6,6458590.6 906420.1,6458615.5 906427.5,6458634.6 906436.5,6458656.1 906444.1,6458678.6 906447.8,6458690.9 906449.8,6458702.6 906452.2,6458725.1 906455.9,6458745.1 906463.1,6458767.6 906468.3,6458787.5 906471.1,6458793.8 906477.4,6458802.5 906489.5,6458817.5 906497.0,6458828.9 906510.8,6458846.4 906520.5,6458861.4 906531.0,6458872.2 906552.2,6458889.0 906561.9,6458895.8 906583.6,6458908.5 906599.5,6458913.0 906614.4,6458916.2 906651.2,6458927.3 906666.9,6458933.2 906678.0,6458939.5 906689.8,6458949.4 906696.1,6458957.3 906699.3,6458967.6 906700.0,6458985.6 906704.3,6459002.2 906707.5,6459006.5 906717.0,6459010.8 906744.5,6459025.9 906749.2,6459031.4 906752.3,6459037.1 906754.8,6459044.9 906756.1,6459054.3 906755.9,6459063.3 906754.1,6459079.7 906749.5,6459097.7 906745.2,6459122.5 906741.3,6459137.2 906741.2,6459141.0 906743.1,6459189.5 906744.7,6459199.3 906747.6,6459210.4 906752.4,6459221.3 906758.4,6459229.2 906774.9,6459247.8 906779.3,6459254.0 906788.9,6459268.8 906796.9,6459287.9 906799.8,6459292.7 906803.4,6459296.3 906807.7,6459300.1 906813.6,6459303.3 906820.7,6459304.6 906831.4,6459304.8 906838.3,6459304.2 906841.2,6459304.0 906852.3,6459304.4 906865.0,6459308.0 906888.3,6459319.0 906899.8,6459326.9 906914.0,6459338.1 906936.9,6459358.0 906946.4,6459363.9 906954.7,6459369.2 906966.4,6459371.6 906982.5,6459370.4 906994.2,6459370.5 907017.0,6459373.8 907028.2,6459376.5 907036.9,6459379.8 907045.3,6459385.2 907055.7,6459393.4 907066.4,6459404.0 907077.2,6459415.5 907088.2,6459429.6 907096.8,6459441.9 907103.5,6459454.5 907107.2,6459465.5 907111.3,6459475.1 907119.7,6459489.6 907121.8,6459493.4 907123.7,6459501.3 907127.9,6459507.9 907131.2,6459516.3 907135.3,6459532.1 907138.9,6459540.3 907143.4,6459547.0 907149.3,6459551.6 907158.7,6459554.3 907184.8,6459556.5 907196.8,6459558.4 907206.6,6459562.3 907218.8,6459569.7 907223.0,6459576.8 907230.3,6459641.9 907230.7,6459644.7 907233.6,6459652.6 907245.6,6459669.6 907263.8,6459685.2 907302.3,6459711.7 907319.3,6459722.6 907331.6,6459732.4 907346.9,6459741.7 907355.3,6459748.1 907359.6,6459755.7 907368.1,6459784.9 907367.9,6459799.7 907365.2,6459812.6 907363.9,6459823.4 907363.5,6459851.6 907362.7,6459862.8 907369.1,6459901.2 907375.3,6459929.9 907378.7,6459940.1 907380.6,6459944.0 907383.4,6459949.4 907389.4,6459958.2 907397.0,6459966.8 907404.7,6459973.1 907410.2,6459981.7 907412.1,6459989.5 907412.1,6460000.9 907416.0,6460009.5 907424.7,6460017.5 907436.5,6460026.1 907445.8,6460031.0 907459.2,6460035.3 907470.1,6460041.4 907475.6,6460045.2 907484.0,6460055.5 907489.1,6460065.7 907497.0,6460079.1 907532.3,6460105.2 907559.4,6460133.8 907567.1,6460152.6 907576.9,6460157.0 907585.7,6460158.3 907625.5,6460155.3 907637.5,6460153.0 907646.5,6460150.6 907653.7,6460147.3 907657.1,6460143.7 907659.0,6460138.3 907663.1,6460134.3 907671.1,6460129.1 907678.6,6460127.4 907685.3,6460127.1 907692.8,6460127.1 907703.3,6460131.1 907717.9,6460137.3 907725.1,6460139.1 907740.5,6460144.0 907780.7,6460151.7 907793.1,6460153.3 907810.2,6460161.2 907825.1,6460170.3 907838.3,6460175.9 907854.2,6460180.2 907905.2,6460182.1 907921.1,6460181.5 907939.9,6460178.1 907955.8,6460174.0 907990.2,6460161.7 908004.6,6460155.4 908022.0,6460149.4 908033.7,6460146.4 908045.0,6460144.9 908058.3,6460145.6 908071.2,6460148.7 908082.2,6460149.2 908094.3,6460147.7 908107.0,6460143.4 908115.3,6460139.0 908119.9,6460133.5 908130.4,6460127.4 908142.3,6460123.9 908174.4,6460128.3 908203.3,6460128.2 908248.9,6460128.4 908274.5,6460129.9 908293.0,6460115.3 908318.4,6460102.6 908335.0,6460096.9 908368.3,6460089.8 908376.3,6460085.1 908383.5,6460082.0 908390.5,6460080.2 908415.7,6460080.0 908437.6,6460081.6 908450.6,6460082.5 908478.1,6460082.6 908495.2,6460079.8 908499.4,6460077.8 908507.2,6460074.1 908512.6,6460073.1 908520.0,6460072.1 908525.0,6460071.6 908529.1,6460071.9 908547.4,6460068.7 908559.9,6460067.6 908591.3,6460063.5 908634.7,6460061.1 908640.7,6460061.3 908666.4,6460062.0 908676.0,6460062.2 908690.2,6460060.9 908713.6,6460057.3 908730.1,6460052.2 908750.5,6460043.0 908775.6,6460032.6 908787.5,6460030.7 908794.8,6460031.1 908807.4,6460034.0 908819.1,6460040.2 908826.9,6460044.7 908835.7,6460051.8 908844.6,6460060.9 908853.1,6460071.7 908864.1,6460089.4 908869.2,6460099.9 908870.9,6460112.9 908874.9,6460149.8 908879.1,6460184.5 908884.0,6460200.1 908890.2,6460209.3 908899.6,6460214.2 908925.4,6460218.1 908948.2,6460219.3 908954.2,6460221.5 908960.4,6460222.3 908967.1,6460224.8 908972.4,6460228.8 908977.7,6460237.0 908981.6,6460262.0 908987.0,6460282.6 908989.6,6460307.6 908988.9,6460326.1 908989.3,6460340.6 908991.4,6460352.4 908996.0,6460363.7 909004.7,6460383.3 909013.2,6460401.4 909018.5,6460417.3 909019.6,6460431.6 909018.1,6460447.3 909016.4,6460464.9 909016.9,6460472.6 909019.8,6460479.7 909023.2,6460483.9 909038.6,6460496.8 909089.1,6460537.7 909108.0,6460552.4 909121.3,6460560.9 909140.7,6460571.9 909171.8,6460587.7 909228.2,6460624.4 909255.1,6460640.7 909294.6,6460667.8 909308.5,6460680.4 909313.2,6460687.7 909316.1,6460702.8 909315.8,6460716.0 909314.7,6460727.4 909296.5,6460774.4 909249.9,6460913.9 909236.7,6460956.8 909217.3,6461013.1 909207.0,6461034.0 909184.9,6461080.9 909179.8,6461098.2 909176.3,6461134.9 909165.2,6461167.9 909163.2,6461189.0 909163.9,6461198.8 909168.5,6461211.2 909181.4,6461219.7 909183.5,6461224.4 909201.4,6461245.1 909220.3,6461264.0 909226.6,6461272.3 909229.8,6461280.0 909237.9,6461289.6 909241.6,6461299.2 909249.7,6461331.5 909261.7,6461354.2 909269.9,6461372.4 909281.4,6461383.3 909284.8,6461385.7 909296.8,6461396.2 909302.5,6461406.0 909314.9,6461439.5 909320.9,6461455.4 909322.9,6461458.5 909325.4,6461462.5 909311.6,6461489.9 909281.3,6461543.4 909223.6,6461641.7 909205.7,6461673.8 909148.9,6461776.1 909059.1,6461927.1 908967.2,6462082.8 908886.5,6462220.4 908758.1,6462444.1 908636.4,6462651.2 908580.9,6462744.4 908539.2,6462814.3 908532.3,6462830.1 908526.2,6462856.8 908519.1,6462914.5 908514.0,6462925.9 908506.6,6462935.3 908499.7,6462941.3 908465.1,6462961.1 908455.9,6462969.9 908412.0,6463047.4 908387.0,6463091.9 908377.0,6463109.7 908340.0,6463177.5 908337.7,6463186.7 908335.3,6463224.9 908332.5,6463266.7 908339.5,6463288.7 908364.1,6463301.2 908366.5,6463304.7 908376.9,6463319.6 908419.3,6463447.2" opacity="0.8" /></g></svg>